<svg xmlns="http://www.w3.org/2000/svg" viewBox="0 0 400 225" fill="none">
  <rect width="400" height="225" fill="#0B2B43"/>
  <path d="M200 80a32 32 0 0 1 32 32 32 32 0 0 1-32 32 32 32 0 0 1-32-32 32 32 0 0 1 32-32zm0 8a24 24 0 0 0-24 24 24 24 0 0 0 24 24 24 24 0 0 0 24-24 24 24 0 0 0-24-24zm0 8a16 16 0 0 1 16 16 16 16 0 0 1-16 16 16 16 0 0 1-16-16 16 16 0 0 1 16-16z" fill="#2C86C7" opacity="0.6"/>
  <path d="M200 72v-4m0 88v-4m-36-36h-4m76 0h4m-61.5-25.5-2.8-2.8m53.6 53.6-2.8-2.8m0-45-2.8 2.8m-45 45 2.8-2.8" stroke="#2C86C7" stroke-width="2" stroke-linecap="round" opacity="0.4"/>
</svg>
